<svg xmlns="http://www.w3.org/2000/svg" viewBox="-28.56000000000003 16.889999999999986 274.82000000000005 274.82000000000005" width="24" height="24">
  <path fill="#000000" d="M 32.5 64 Q 41.9 62.6 44 68.5 L 46 81.5 L 45 82.5 L 45 117.5 L 56 127.5 Q 60.4 133.1 60 143.5 Q 57.8 156.3 48.5 162 L 45 164.5 L 46 168.5 L 45 169.5 L 45 239.5 L 41.5 244 L 34.5 246 L 27 241.5 L 26 239.5 L 26 164.5 L 23.5 162 L 17 157.5 Q 10.7 151.3 11 138.5 Q 13.3 125.8 22.5 120 L 26 117.5 L 26 81.5 L 25 77.5 Q 27.8 75.8 26 69.5 L 30.5 65 L 32.5 64 Z " />
  <path fill="#000000" d="M 105.5 64 Q 113.1 62.9 116 66.5 L 119 73.5 L 119 159.5 L 120.5 161 L 127 165.5 Q 134.5 172 133 187.5 Q 130.6 197.1 123.5 202 L 119 204.5 L 119 236.5 Q 117.8 242.3 113.5 245 L 106.5 246 L 100 241.5 L 99 239.5 L 99 205.5 L 96.5 203 L 90 198.5 Q 83.9 192.6 84 180.5 L 88 168.5 L 94.5 162 L 99 159.5 L 99 70.5 L 103.5 65 L 105.5 64 Z " />
  <path fill="#000000" d="M 179.5 64 Q 188.8 62.6 191 68.5 L 192 71.5 L 192 105.5 L 194.5 108 L 203 115.5 L 207 125.5 L 207 132.5 Q 204.4 144.4 195.5 150 L 192 151.5 L 192 238.5 L 186.5 245 L 180.5 246 L 173 240.5 L 172 237.5 L 172 151.5 L 170.5 150 L 164 145.5 L 158 133.5 L 158 124.5 Q 160.1 115.1 166.5 110 L 172 106.5 L 172 72.5 L 175.5 66 L 179.5 64 Z " />
</svg>