<svg xmlns="http://www.w3.org/2000/svg" viewBox="80.19999999999999 62.69999999999999 327.6 327.6" width="24" height="24">
  <path fill="#000000" d="M 232.5 110 L 255.5 110 Q 257.3 112.7 263.5 111 L 288.5 118 Q 317 130 335 152.5 Q 350.5 170.5 358 196.5 L 361 211.5 L 361 241.5 Q 353 287 324.5 312 Q 305.7 330.2 277.5 339 L 257.5 343 L 230.5 343 Q 181.8 334.7 156 303.5 Q 142.1 287.9 134 266.5 L 128 243.5 L 127 222.5 L 128 221.5 L 128 209.5 L 130 199.5 L 137 179.5 Q 147.6 156.1 165.5 140 Q 177.6 128.6 193.5 121 L 215.5 113 L 232.5 110 Z M 241 158 L 234 161 Q 227 165 225 175 L 226 183 L 228 187 Q 232 193 241 195 Q 250 196 255 192 Q 261 188 263 180 Q 264 171 260 167 Q 255 157 241 158 Z M 242 207 L 233 211 L 227 220 L 227 284 L 229 289 L 235 294 L 244 297 L 254 294 L 261 285 L 261 228 L 262 227 L 261 219 L 259 215 Q 254 207 242 207 Z " />
</svg>