<svg xmlns="http://www.w3.org/2000/svg" viewBox="19.650000000000006 223.9 357.7 357.7" width="24" height="24">
  <path fill="#000000" d="M 192.5 275 L 222.5 276 L 240.5 280 L 251.5 284 Q 281.1 296.4 300 319.5 Q 312.4 334.6 320 354.5 L 325 374.5 L 326 391.5 L 325 392.5 L 324 406.5 L 320 419.5 Q 313.2 434.2 301.5 444 Q 292.3 451.8 278.5 455 Q 273 453.5 271.5 456 L 224.5 456 Q 217.1 458.1 213 463.5 Q 208.3 468.3 209 478.5 L 213 488.5 L 220 499.5 L 220 511.5 Q 217.9 518.9 212.5 523 Q 203 530.5 183.5 528 L 162.5 524 L 134.5 512 Q 116.3 501.7 103 486.5 Q 88.1 469.9 79 447.5 L 73 426.5 L 72 411.5 L 71 410.5 L 71 397.5 L 72 396.5 L 73 380.5 L 82 352.5 Q 93.8 326.8 113.5 309 Q 129.5 294 151.5 285 L 177.5 277 L 191.5 276 L 192.5 275 Z M 168 307 L 159 312 Q 153 317 151 326 Q 151 337 156 343 Q 161 348 169 350 L 179 350 L 187 346 Q 193 342 195 334 Q 196 321 191 316 L 182 308 Q 176 306 168 307 Z M 238 313 L 230 317 Q 223 321 221 330 Q 220 341 224 347 Q 229 353 238 356 Q 249 358 255 353 Q 263 348 265 338 Q 265 327 261 322 Q 255 311 238 313 Z M 124 357 L 114 361 L 108 367 L 105 373 Q 106 377 104 379 L 105 386 L 109 393 Q 114 399 124 401 Q 135 401 141 396 Q 146 392 148 385 Q 150 371 144 366 L 134 358 L 124 357 Z M 269 374 L 259 379 L 251 391 Q 250 402 254 408 Q 258 415 268 417 Q 282 419 288 412 L 294 403 Q 293 398 295 397 Q 293 395 294 390 L 291 384 Q 285 373 269 374 Z " />
</svg>