<svg xmlns="http://www.w3.org/2000/svg" viewBox="19.549999999999983 225.2 334.6 334.6" width="24" height="24">
  <path fill="#000000" d="M 157.5 273 Q 174.8 274.2 182 285.5 L 187 296.5 L 187 307.5 L 184 315.5 L 179 322.5 L 179 325.5 L 182.5 330 L 184.5 331 L 234.5 331 Q 241.7 332.8 245 338.5 L 246 341.5 L 246 393.5 L 247.5 396 Q 249.2 398.8 254.5 398 L 265.5 391 L 278.5 390 Q 291.1 392.4 297 401.5 Q 302.7 408.3 302 421.5 Q 299.3 433.8 290.5 440 L 279.5 445 L 269.5 445 L 262.5 443 L 256.5 438 L 251.5 437 L 246 441.5 L 246 501.5 L 239.5 510 L 233.5 512 L 186.5 512 L 179 507.5 L 178 502.5 L 185 490.5 L 186 479.5 Q 183.8 466.8 174.5 461 L 163.5 456 L 153.5 456 Q 143.8 458.3 138 464.5 L 131 477.5 L 131 487.5 Q 132.8 495.7 138 500.5 L 138 506.5 L 130.5 512 L 82.5 512 L 73 506.5 L 71 502.5 L 71 441.5 L 74.5 437 L 79.5 436 L 94.5 444 L 106.5 444 Q 118.1 440.6 124 431.5 Q 128 425.5 128 415.5 L 126 407.5 L 119.5 398 Q 112.7 390.3 98.5 390 L 90.5 392 L 81.5 398 L 75.5 398 L 72 395.5 L 71 393.5 L 71 340.5 L 75.5 334 L 82.5 331 L 132.5 331 L 136 328.5 L 137 320.5 Q 131.7 316.3 130 308.5 L 130 295.5 Q 133.4 283.9 142.5 278 L 148.5 275 L 157.5 273 Z " />
</svg>