<svg xmlns="http://www.w3.org/2000/svg" viewBox="63.2 13.700000000000003 166.6 166.6" width="24" height="24">
  <path fill="#000000" d="M 145.5 38 L 149.5 39 L 176 64.5 L 178 70.5 L 173.5 76 L 170.5 77 L 167.5 76 L 157 66.5 L 156.5 65 L 153.5 63 L 153 122.5 L 149.5 127 Q 143.4 128.1 141 125.5 L 139 120.5 L 138.5 64 L 125.5 76 L 119.5 76 L 115 69.5 L 119 62.5 L 141.5 40 L 145.5 38 Z " />
  <path fill="#000000" d="M 91.5 113 Q 97.6 111.9 100 114.5 L 102 118.5 L 102.5 142 L 191.5 142 L 193 140.5 L 192 120.5 L 193 116.5 L 196.5 113 Q 204.5 111.5 206 116.5 L 206 148.5 L 201.5 154 L 197.5 156 L 95.5 156 L 89 150.5 L 88 148.5 L 87 131.5 L 88 130.5 L 88 116.5 L 91.5 113 Z " />
</svg>