<svg xmlns="http://www.w3.org/2000/svg" viewBox="46.24000000000001 201.04000000000002 386.12 386.12" width="24" height="24">
  <path fill="#FFFFFF" d="M 318.5 258 Q 330.3 256.2 334 262.5 Q 338.7 267.3 337 278.5 Q 333.8 292.3 326 301.5 L 302.5 327 L 297 331.5 L 298.5 332 L 318.5 323 L 328.5 321 L 341.5 321 L 351 326.5 L 352 330.5 Q 350.4 337.4 344.5 340 L 331.5 347 L 312.5 353 L 298.5 354 L 297.5 355 L 279 355.5 L 294 368.5 L 301 381.5 L 301 392.5 Q 295 408 283.5 418 L 262.5 401 L 254.5 396 L 250.5 396 Q 248.3 396.8 249 400.5 L 250.5 403 L 276 424.5 L 267.5 435 L 264 437.5 L 263.5 439 L 262 439.5 L 259.5 443 L 257 444.5 L 254.5 448 L 224.5 475 L 222.5 475 L 211.5 467 L 207.5 467 L 205 471.5 L 207.5 475 L 216 481.5 L 214.5 484 L 163.5 525 L 152.5 531 L 138.5 532 L 130 525.5 Q 126.6 520.4 128 510.5 L 133 492.5 L 145 462.5 L 153.5 446 L 172.5 459 L 179.5 460 L 181 455.5 L 157 437.5 Q 165.1 415.6 176.5 397 L 201.5 414 L 204.5 414 Q 207.8 413.3 207 408.5 Q 195.3 396.7 180 388.5 L 200 350.5 Q 205.6 339.6 214.5 332 L 225.5 327 L 232.5 327 L 244.5 331 L 259.5 341 L 260 339.5 L 258 336.5 L 251 312.5 Q 252.3 307.8 250 306.5 L 250 284.5 L 253 275.5 L 257.5 271 L 262.5 270 L 269 275.5 L 272 281.5 L 275 295.5 L 275 316.5 L 274.5 318 L 276 317.5 Q 285.9 284.9 307.5 264 L 318.5 258 Z " />
</svg>