<svg xmlns="http://www.w3.org/2000/svg" viewBox="33.26000000000002 91.36000000000001 273.28 273.28" width="24" height="24">
  <path fill="#000000" d="M 91.5 131 L 99.5 132 L 105.5 135 L 170.5 200 L 214.5 155 L 216 154.5 L 233.5 136 Q 238.9 131.4 248.5 131 Q 259.4 132.6 264 140.5 Q 267.4 145.6 266 155.5 L 263 162.5 L 198 227.5 L 263 292.5 Q 267.5 298 266 309.5 Q 263.8 316.3 258.5 320 Q 253 325 240.5 323 L 234.5 320 L 212 297.5 L 205.5 290 L 204 289.5 L 203.5 288 L 200 285.5 L 170.5 255 L 105.5 320 Q 100 325 87.5 323 Q 80.8 320.8 77 315.5 Q 72.3 310.7 74 299.5 L 77 292.5 L 117.5 252 L 143 227.5 L 78 163.5 Q 72.3 158.2 74 145.5 Q 76.3 138.8 81.5 135 L 91.5 131 Z " />
</svg>