<svg xmlns="http://www.w3.org/2000/svg" viewBox="-24.400000000000006 45.599999999999994 233.8 233.8" width="24" height="24">
  <path fill="#000000" d="M 89.5 80 Q 100.1 79 103 85.5 L 104 87.5 L 104 101.5 L 105 102.5 L 105 125.5 Q 102.8 126.7 104 131.5 L 105 132.5 L 105.5 170 L 123.5 152 Q 126.2 149.2 132.5 150 L 139 154.5 Q 141.3 157.7 140 164.5 L 100.5 205 Q 97 209 87.5 207 L 45 165.5 L 44 157.5 L 49.5 151 L 56.5 150 L 59.5 151 L 79.5 170 L 80 89.5 Q 81.4 83.4 86.5 81 L 89.5 80 Z " />
  <path fill="#000000" d="M 20.5 192 Q 30.2 190.8 33 196.5 L 34 198.5 L 34 223.5 L 35.5 225 L 148.5 225 L 150 223.5 L 150 200.5 L 155.5 193 L 163.5 192 L 169 195.5 L 171 199.5 L 171 232.5 Q 168.9 240.4 162.5 244 L 156.5 246 L 28.5 246 Q 20.7 244.8 17 239.5 L 14 234.5 L 14 198.5 L 18.5 193 L 20.5 192 Z " />
</svg>