<svg xmlns="http://www.w3.org/2000/svg" viewBox="76.2 19.700000000000003 166.6 166.6" width="24" height="24">
  <path fill="#000000" d="M 108.5 46 L 210.5 46 L 218 51.5 L 219 54.5 L 219 152.5 L 213.5 159 L 211.5 160 L 107.5 160 L 101 154.5 L 100 151.5 L 100 53.5 L 105.5 47 L 108.5 46 Z M 112 72 L 111 93 L 117 94 L 118 93 L 154 93 L 154 73 L 112 72 Z M 165 72 L 164 93 L 166 94 L 167 93 L 208 93 L 209 92 L 209 74 L 208 72 L 165 72 Z M 140 103 L 139 104 L 112 104 L 111 120 L 110 121 L 112 122 L 154 122 L 154 105 L 140 103 Z M 181 103 L 180 104 L 164 105 L 165 122 L 208 122 L 209 121 Q 211 110 208 105 L 181 103 Z M 112 132 L 111 150 L 154 150 L 154 133 L 112 132 Z M 165 132 L 164 149 L 166 150 L 208 150 L 209 149 Q 211 138 208 133 L 165 132 Z " />
</svg>