<svg xmlns="http://www.w3.org/2000/svg" viewBox="34.099999999999994 58.599999999999994 163.8 163.8" width="24" height="24">
  <path fill="#000000" d="M 141.5 82 Q 160.2 82.8 168 94.5 L 174 107.5 L 174 120.5 L 169 132.5 L 143.5 158 L 141.5 159 L 137.5 158 Q 137.4 165.9 133 169.5 L 109.5 193 L 96.5 199 L 81.5 199 Q 70 196 64 187.5 L 58 175.5 L 58 160.5 L 65 146.5 L 85.5 126 L 95 121.5 L 99 112.5 L 122.5 89 L 131.5 84 L 141.5 82 Z M 139 97 L 134 99 L 116 117 L 129 123 L 135 130 L 141 141 L 157 125 L 160 118 Q 161 109 157 105 Q 153 96 139 97 Z M 109 126 L 106 130 Q 104 139 108 144 L 113 148 L 121 153 L 113 163 L 110 163 L 102 158 Q 94 152 92 141 L 74 159 L 72 163 Q 70 174 75 179 L 85 185 Q 94 187 99 183 L 124 158 L 126 154 Q 128 144 124 140 Q 121 133 114 132 Q 111 132 111 128 L 109 126 Z " />
</svg>